<?xml version="1.0" standalone="no"?><!DOCTYPE svg PUBLIC "-//W3C//DTD SVG 1.1//EN" "http://www.w3.org/Graphics/SVG/1.1/DTD/svg11.dtd"><svg t="1644558701933" class="icon" viewBox="0 0 1088 1024" version="1.1" xmlns="http://www.w3.org/2000/svg" p-id="1958" width="17" height="16" xmlns:xlink="http://www.w3.org/1999/xlink"><defs><style type="text/css"></style></defs><path d="M508.928 832H155.072A27.072 27.072 0 0 1 128 804.928V155.072C128 140.16 140.16 128 155.072 128h649.856c14.976 0 27.072 12.16 27.072 27.072v295.232h64V155.072C896 104.768 855.232 64 804.928 64H155.072C104.768 64 64 104.768 64 155.072v649.856C64 855.232 104.768 896 155.072 896h353.856v-64z" fill="#ffffff" p-id="1959"></path><path d="M642.176 730.624l195.968-195.968a96 96 0 0 1 135.808 0l36.224 36.224a96 96 0 0 1 0 135.744l-196.032 195.968a96 96 0 0 1-43.456 24.96l-155.2 40.832a32 32 0 0 1-39.04-39.104l40.768-155.2a96 96 0 0 1 24.96-43.52z m112.256 135.04a32 32 0 0 0 14.464-8.32l196.032-195.968a32 32 0 0 0 0-45.248l-36.288-36.224a32 32 0 0 0-45.248 0l-195.968 195.968a32 32 0 0 0-8.32 14.464l-26.88 102.208 102.208-26.88z" fill="#ffffff" p-id="1960"></path><path d="M432.576 312.384l179.52 125.696a51.2 51.2 0 0 1 0 83.84L432.576 647.68A51.2 51.2 0 0 1 352 605.632V354.368a51.2 51.2 0 0 1 80.576-41.984z" fill="#ffffff" p-id="1961"></path></svg>